<svg width="400" height="224" viewBox="0 0 400 224" fill="none" xmlns="http://www.w3.org/2000/svg">
<rect width="400" height="224" fill="#0E1E38"/>
<path d="M33.9854 128.237L83.3333 76.631C83.6402 76.3101 84.0179 76.0469 84.456 75.9745C86.0756 75.7067 86.1535 76.9911 85.924 77.9196C85.8793 78.1002 85.7993 78.269 85.7059 78.4299L61.2992 120.464C60.8629 121.198 60.6558 121.811 60.5947 122.319C60.4271 123.712 61.8158 124.725 63.0879 125.317C64.7714 126.1 67.1955 126.976 68.5254 127.419L117.212 143.647C121.303 144.738 120.735 142.283 119.94 140.92L88.3195 77.6795C88.2618 77.564 88.21 77.4441 88.1762 77.3195C87.898 76.2947 88.3986 76.0216 88.947 76.0272C89.3821 76.0316 89.7551 76.305 90.0588 76.6166L155.737 143.988C157.374 146.17 155.737 146.715 154.715 146.715H39.7207C38.6523 146.715 37.5717 146.662 36.5408 146.382C29.7084 144.524 29.348 138.499 30.5124 133.89C31.0633 131.71 32.4311 129.862 33.9854 128.237Z" fill="white"/>
<path d="M172.811 126.858C172.607 127.29 172.402 127.574 172.198 127.71C171.993 127.847 171.686 127.915 171.277 127.915H168.243C167.743 127.915 167.493 127.756 167.493 127.438C167.493 127.324 167.55 127.131 167.663 126.858L178.266 105.209C178.585 104.527 178.846 104.072 179.05 103.845C179.255 103.618 179.482 103.504 179.732 103.504C179.982 103.504 180.198 103.618 180.38 103.845C180.562 104.072 180.823 104.527 181.164 105.209L191.835 126.858C191.949 127.131 192.006 127.324 192.006 127.438C192.006 127.756 191.756 127.915 191.256 127.915H188.017C187.631 127.915 187.335 127.847 187.131 127.71C186.926 127.574 186.721 127.29 186.517 126.858L179.63 112.334L172.811 126.858ZM198.548 127.097C198.548 127.392 198.48 127.608 198.344 127.744C198.207 127.858 197.991 127.915 197.696 127.915H194.593C194.298 127.915 194.082 127.858 193.945 127.744C193.832 127.608 193.775 127.392 193.775 127.097V104.868C193.775 104.572 193.832 104.368 193.945 104.254C194.082 104.118 194.298 104.05 194.593 104.05H208.401C208.697 104.05 208.912 104.118 209.049 104.254C209.185 104.368 209.253 104.572 209.253 104.868V107.663C209.253 107.959 209.185 108.175 209.049 108.311C208.935 108.425 208.719 108.482 208.401 108.482H198.991C198.832 108.482 198.719 108.516 198.65 108.584C198.582 108.652 198.548 108.766 198.548 108.925V113.937C198.548 114.096 198.582 114.209 198.65 114.278C198.719 114.346 198.832 114.38 198.991 114.38H207.242C207.56 114.38 207.776 114.448 207.89 114.584C208.026 114.698 208.094 114.914 208.094 115.232V117.994C208.094 118.289 208.026 118.505 207.89 118.642C207.753 118.755 207.537 118.812 207.242 118.812H198.991C198.832 118.812 198.719 118.846 198.65 118.914C198.582 118.982 198.548 119.096 198.548 119.255V127.097ZM217.039 127.097C217.039 127.392 216.971 127.608 216.834 127.744C216.698 127.858 216.482 127.915 216.187 127.915H213.084C212.789 127.915 212.573 127.858 212.436 127.744C212.323 127.608 212.266 127.392 212.266 127.097V104.868C212.266 104.572 212.323 104.368 212.436 104.254C212.573 104.118 212.789 104.05 213.084 104.05H226.892C227.187 104.05 227.403 104.118 227.54 104.254C227.676 104.368 227.744 104.572 227.744 104.868V107.663C227.744 107.959 227.676 108.175 227.54 108.311C227.426 108.425 227.21 108.482 226.892 108.482H217.482C217.323 108.482 217.209 108.516 217.141 108.584C217.073 108.652 217.039 108.766 217.039 108.925V113.937C217.039 114.096 217.073 114.209 217.141 114.278C217.209 114.346 217.323 114.38 217.482 114.38H225.733C226.051 114.38 226.267 114.448 226.38 114.584C226.517 114.698 226.585 114.914 226.585 115.232V117.994C226.585 118.289 226.517 118.505 226.38 118.642C226.244 118.755 226.028 118.812 225.733 118.812H217.482C217.323 118.812 217.209 118.846 217.141 118.914C217.073 118.982 217.039 119.096 217.039 119.255V127.097ZM229.393 116.085C229.393 113.721 229.938 111.596 231.029 109.709C232.12 107.8 233.62 106.311 235.53 105.243C237.439 104.175 239.587 103.64 241.973 103.64C244.36 103.64 246.508 104.175 248.417 105.243C250.326 106.288 251.815 107.754 252.883 109.641C253.974 111.505 254.52 113.607 254.52 115.948C254.52 118.312 253.974 120.437 252.883 122.324C251.792 124.21 250.281 125.687 248.349 126.756C246.439 127.801 244.28 128.324 241.871 128.324C239.507 128.324 237.371 127.801 235.461 126.756C233.575 125.71 232.086 124.256 230.995 122.392C229.927 120.528 229.393 118.426 229.393 116.085ZM234.336 116.016C234.336 117.539 234.666 118.903 235.325 120.108C235.984 121.289 236.882 122.221 238.018 122.903C239.178 123.562 240.473 123.892 241.905 123.892C243.314 123.892 244.598 123.562 245.758 122.903C246.94 122.221 247.871 121.278 248.553 120.073C249.235 118.869 249.576 117.516 249.576 116.016C249.576 114.471 249.235 113.096 248.553 111.891C247.894 110.664 246.974 109.72 245.792 109.061C244.633 108.402 243.348 108.073 241.939 108.073C240.507 108.073 239.212 108.414 238.053 109.095C236.916 109.755 236.007 110.686 235.325 111.891C234.666 113.096 234.336 114.471 234.336 116.016ZM273.18 104.868C273.18 104.572 273.237 104.368 273.351 104.254C273.487 104.118 273.703 104.05 273.998 104.05H277.101C277.396 104.05 277.612 104.118 277.749 104.254C277.885 104.368 277.953 104.572 277.953 104.868V127.097C277.953 127.506 277.885 127.813 277.749 128.017C277.635 128.222 277.442 128.324 277.169 128.324C276.964 128.324 276.748 128.244 276.521 128.085C276.294 127.926 275.976 127.642 275.567 127.233L262.577 113.493V127.097C262.577 127.392 262.509 127.608 262.372 127.744C262.236 127.858 262.02 127.915 261.725 127.915H258.622C258.327 127.915 258.111 127.858 257.974 127.744C257.861 127.608 257.804 127.392 257.804 127.097V104.868C257.804 104.05 258.054 103.64 258.554 103.64C258.759 103.64 258.975 103.72 259.202 103.879C259.452 104.038 259.781 104.322 260.191 104.731L273.18 118.471V104.868ZM282.11 121.846C282.201 121.71 282.292 121.608 282.383 121.539C282.496 121.449 282.599 121.403 282.69 121.403C282.871 121.403 283.076 121.505 283.303 121.71C284.167 122.392 285.11 122.937 286.133 123.346C287.179 123.733 288.236 123.926 289.304 123.926C290.645 123.926 291.679 123.687 292.406 123.21C293.134 122.71 293.497 122.039 293.497 121.199C293.497 120.653 293.349 120.21 293.054 119.869C292.759 119.528 292.27 119.221 291.588 118.948C290.929 118.676 289.974 118.38 288.724 118.062C287.065 117.653 285.69 117.164 284.599 116.596C283.531 116.028 282.701 115.289 282.11 114.38C281.542 113.471 281.258 112.334 281.258 110.971C281.258 109.448 281.621 108.141 282.349 107.05C283.099 105.936 284.122 105.095 285.417 104.527C286.735 103.936 288.224 103.64 289.883 103.64C292.906 103.64 295.6 104.584 297.963 106.47C298.213 106.652 298.338 106.857 298.338 107.084C298.338 107.266 298.259 107.47 298.1 107.698L296.668 109.948C296.486 110.243 296.293 110.391 296.088 110.391C295.929 110.391 295.725 110.3 295.475 110.118C294.543 109.459 293.622 108.948 292.713 108.584C291.804 108.22 290.849 108.039 289.849 108.039C288.736 108.039 287.849 108.277 287.19 108.754C286.554 109.232 286.235 109.868 286.235 110.664C286.235 111.232 286.394 111.698 286.713 112.062C287.031 112.425 287.497 112.732 288.11 112.982C288.747 113.232 289.645 113.505 290.804 113.8C292.554 114.232 293.986 114.755 295.1 115.369C296.213 115.96 297.043 116.71 297.588 117.619C298.157 118.505 298.441 119.596 298.441 120.892C298.441 122.414 298.054 123.733 297.282 124.846C296.509 125.96 295.429 126.824 294.043 127.438C292.656 128.029 291.065 128.324 289.27 128.324C287.633 128.324 286.099 128.063 284.667 127.54C283.235 127.017 281.974 126.301 280.883 125.392C280.565 125.142 280.405 124.915 280.405 124.71C280.405 124.574 280.496 124.358 280.678 124.062L282.11 121.846ZM316.201 123.483C316.497 123.483 316.713 123.551 316.849 123.687C316.985 123.801 317.054 124.006 317.054 124.301V127.097C317.054 127.392 316.985 127.608 316.849 127.744C316.713 127.858 316.497 127.915 316.201 127.915H302.496C302.2 127.915 301.984 127.858 301.848 127.744C301.734 127.608 301.677 127.392 301.677 127.097V104.868C301.677 104.572 301.734 104.368 301.848 104.254C301.984 104.118 302.2 104.05 302.496 104.05H316.167C316.463 104.05 316.679 104.118 316.815 104.254C316.951 104.368 317.019 104.572 317.019 104.868V107.663C317.019 107.959 316.951 108.175 316.815 108.311C316.679 108.425 316.463 108.482 316.167 108.482H306.894C306.735 108.482 306.621 108.516 306.553 108.584C306.485 108.652 306.451 108.766 306.451 108.925V113.255C306.451 113.414 306.485 113.528 306.553 113.596C306.621 113.664 306.735 113.698 306.894 113.698H315.008C315.303 113.698 315.519 113.766 315.656 113.903C315.792 114.039 315.86 114.255 315.86 114.55V117.312C315.86 117.607 315.792 117.823 315.656 117.96C315.519 118.073 315.303 118.13 315.008 118.13H306.894C306.735 118.13 306.621 118.164 306.553 118.232C306.485 118.278 306.451 118.391 306.451 118.573V123.04C306.451 123.199 306.485 123.312 306.553 123.38C306.621 123.449 306.735 123.483 306.894 123.483H316.201ZM331.852 123.892C334.193 123.892 336.284 123.153 338.125 121.676C338.375 121.471 338.591 121.369 338.773 121.369C338.955 121.369 339.136 121.494 339.318 121.744L340.818 123.892C340.955 124.096 341.023 124.267 341.023 124.403C341.023 124.517 340.989 124.631 340.921 124.744C340.852 124.858 340.739 124.983 340.58 125.119C339.352 126.142 337.977 126.938 336.454 127.506C334.932 128.051 333.341 128.324 331.681 128.324C329.363 128.324 327.249 127.801 325.34 126.756C323.454 125.687 321.965 124.221 320.874 122.358C319.783 120.494 319.237 118.403 319.237 116.085C319.237 113.721 319.783 111.596 320.874 109.709C321.988 107.823 323.499 106.345 325.408 105.277C327.34 104.186 329.511 103.64 331.92 103.64C333.579 103.64 335.148 103.925 336.625 104.493C338.102 105.061 339.443 105.834 340.648 106.811C340.762 106.925 340.852 107.038 340.921 107.152C340.989 107.243 341.023 107.334 341.023 107.425C341.023 107.584 340.943 107.777 340.784 108.004L339.284 110.118C339.08 110.391 338.875 110.527 338.67 110.527C338.511 110.527 338.307 110.436 338.057 110.255C337.148 109.573 336.17 109.039 335.125 108.652C334.079 108.266 332.988 108.073 331.852 108.073C330.42 108.073 329.113 108.414 327.931 109.095C326.772 109.755 325.851 110.686 325.17 111.891C324.51 113.096 324.181 114.471 324.181 116.016C324.181 117.516 324.51 118.869 325.17 120.073C325.851 121.255 326.772 122.187 327.931 122.869C329.09 123.551 330.397 123.892 331.852 123.892ZM346.907 126.858C346.702 127.29 346.498 127.574 346.293 127.71C346.089 127.847 345.782 127.915 345.373 127.915H342.338C341.838 127.915 341.588 127.756 341.588 127.438C341.588 127.324 341.645 127.131 341.759 126.858L352.362 105.209C352.68 104.527 352.941 104.072 353.146 103.845C353.351 103.618 353.578 103.504 353.828 103.504C354.078 103.504 354.294 103.618 354.476 103.845C354.657 104.072 354.919 104.527 355.26 105.209L365.931 126.858C366.045 127.131 366.101 127.324 366.101 127.438C366.101 127.756 365.851 127.915 365.351 127.915H362.113C361.726 127.915 361.431 127.847 361.226 127.71C361.022 127.574 360.817 127.29 360.612 126.858L353.726 112.334L346.907 126.858Z" fill="#FAFEFF"/>
<path d="M181.586 96.4512C182.738 96.4512 183.808 96.2683 184.796 95.9025C185.801 95.5185 186.716 94.979 187.539 94.2841C187.722 94.1378 187.868 94.0647 187.978 94.0647C188.106 94.0647 188.225 94.147 188.334 94.3116L188.746 94.8602C188.837 95.0065 188.883 95.1162 188.883 95.1893C188.883 95.3173 188.791 95.4636 188.609 95.6282C187.639 96.4512 186.542 97.0912 185.317 97.5484C184.11 97.9873 182.839 98.2067 181.504 98.2067C179.785 98.2067 178.194 97.7861 176.731 96.9449C175.268 96.1037 174.107 94.9333 173.247 93.4338C172.388 91.9342 171.958 90.2518 171.958 88.3865C171.958 86.5212 172.388 84.8388 173.247 83.3392C174.107 81.8214 175.277 80.6327 176.758 79.7732C178.24 78.8954 179.876 78.4566 181.669 78.4566C182.967 78.4566 184.21 78.6851 185.399 79.1423C186.588 79.5995 187.648 80.2121 188.581 80.9802C188.746 81.1082 188.828 81.2362 188.828 81.3642C188.828 81.4557 188.773 81.5837 188.663 81.7482L188.252 82.2694C188.106 82.4523 187.978 82.5437 187.868 82.5437C187.813 82.5437 187.749 82.5255 187.676 82.4889C187.603 82.434 187.52 82.3792 187.429 82.3243C186.606 81.666 185.692 81.1539 184.686 80.7882C183.698 80.4041 182.665 80.2121 181.586 80.2121C180.16 80.2121 178.852 80.5596 177.664 81.2545C176.493 81.9494 175.561 82.9186 174.866 84.1622C174.171 85.3874 173.823 86.7864 173.823 88.3591C173.823 89.8586 174.162 91.2302 174.838 92.4737C175.533 93.6989 176.475 94.6682 177.664 95.3814C178.852 96.0946 180.16 96.4512 181.586 96.4512ZM190.111 88.4414C190.111 86.5944 190.54 84.9119 191.4 83.3941C192.259 81.858 193.439 80.651 194.938 79.7732C196.438 78.8954 198.093 78.4566 199.903 78.4566C201.714 78.4566 203.35 78.8863 204.813 79.7458C206.295 80.6053 207.456 81.7848 208.297 83.2844C209.157 84.7839 209.586 86.4481 209.586 88.2768C209.586 90.1238 209.157 91.8062 208.297 93.324C207.438 94.8419 206.249 96.0397 204.731 96.9175C203.232 97.777 201.567 98.2067 199.739 98.2067C197.947 98.2067 196.319 97.7861 194.856 96.9449C193.393 96.0854 192.232 94.915 191.372 93.4338C190.531 91.9342 190.111 90.2701 190.111 88.4414ZM191.976 88.3865C191.976 89.9043 192.314 91.2759 192.991 92.5011C193.686 93.7264 194.627 94.6956 195.816 95.4088C197.023 96.1037 198.349 96.4512 199.794 96.4512C201.238 96.4512 202.564 96.0946 203.771 95.3814C204.978 94.6682 205.938 93.6898 206.651 92.4463C207.364 91.2027 207.721 89.8312 207.721 88.3316C207.721 86.7772 207.364 85.3874 206.651 84.1622C205.956 82.9186 205.005 81.9494 203.798 81.2545C202.61 80.5596 201.293 80.2121 199.848 80.2121C198.404 80.2121 197.078 80.5687 195.871 81.2819C194.664 81.9768 193.713 82.9461 193.018 84.1896C192.323 85.4331 191.976 86.8321 191.976 88.3865ZM226.256 79.2795C226.256 79.06 226.292 78.9137 226.365 78.8406C226.457 78.7674 226.603 78.7309 226.804 78.7309H227.49C227.691 78.7309 227.828 78.7674 227.901 78.8406C227.993 78.9137 228.039 79.06 228.039 79.2795V97.3838C228.039 97.6764 227.993 97.8867 227.901 98.0147C227.81 98.1427 227.682 98.2067 227.517 98.2067C227.371 98.2067 227.225 98.1519 227.079 98.0421C226.951 97.9324 226.759 97.713 226.503 97.3838L214.762 82.434V97.3838C214.762 97.6032 214.716 97.7495 214.625 97.8227C214.552 97.8958 214.415 97.9324 214.214 97.9324H213.528C213.327 97.9324 213.18 97.8958 213.089 97.8227C213.016 97.7495 212.979 97.6032 212.979 97.3838V79.2795C212.979 78.9869 213.025 78.7766 213.116 78.6486C213.208 78.5206 213.336 78.4566 213.5 78.4566C213.647 78.4566 213.784 78.5114 213.912 78.6211C214.058 78.7309 214.259 78.9503 214.515 79.2795L226.256 94.2293V79.2795ZM237.514 78.4566C239.708 78.4566 241.711 79.1515 243.521 80.5413C243.704 80.6693 243.795 80.7973 243.795 80.9253C243.795 81.0168 243.731 81.1356 243.603 81.2819L243.11 81.8854C242.982 82.0683 242.863 82.1597 242.753 82.1597C242.625 82.1597 242.488 82.0957 242.342 81.9677C241.573 81.4191 240.787 80.9893 239.983 80.6784C239.196 80.3676 238.355 80.2121 237.459 80.2121C236.654 80.2121 235.941 80.3493 235.319 80.6236C234.698 80.8979 234.213 81.3002 233.865 81.8305C233.518 82.3426 233.344 82.9552 233.344 83.6684C233.344 84.3816 233.509 84.9668 233.838 85.424C234.185 85.8812 234.688 86.256 235.347 86.5486C236.005 86.8412 236.901 87.1338 238.035 87.4264C239.443 87.7922 240.568 88.2036 241.409 88.6608C242.25 89.0997 242.881 89.6483 243.302 90.3067C243.722 90.965 243.933 91.7788 243.933 92.748C243.933 93.8269 243.64 94.7779 243.055 95.6008C242.47 96.4237 241.665 97.0638 240.641 97.521C239.617 97.9781 238.456 98.2067 237.157 98.2067C235.968 98.2067 234.844 97.9964 233.783 97.5758C232.741 97.1369 231.781 96.5517 230.903 95.8202C230.72 95.6922 230.629 95.5642 230.629 95.4362C230.629 95.3265 230.693 95.1985 230.821 95.0522L231.342 94.4213C231.47 94.2567 231.589 94.1744 231.698 94.1744C231.772 94.1744 231.89 94.2384 232.055 94.3664C233.774 95.7562 235.502 96.4512 237.239 96.4512C238.209 96.4512 239.05 96.3049 239.763 96.0123C240.495 95.7197 241.052 95.3082 241.436 94.7779C241.839 94.2293 242.04 93.5892 242.04 92.8577C242.04 92.1811 241.884 91.6325 241.573 91.2119C241.281 90.773 240.796 90.3981 240.12 90.0872C239.461 89.758 238.529 89.438 237.322 89.1271C235.987 88.7797 234.899 88.4048 234.057 88.0025C233.235 87.6002 232.594 87.0607 232.137 86.3841C231.68 85.7074 231.452 84.8388 231.452 83.7781C231.452 82.6992 231.717 81.7574 232.247 80.9528C232.796 80.1481 233.527 79.5355 234.441 79.1149C235.356 78.676 236.38 78.4566 237.514 78.4566ZM260.129 79.9378C260.129 80.1573 260.083 80.3036 259.992 80.3767C259.919 80.4499 259.782 80.4864 259.58 80.4864H254.012C253.829 80.4864 253.738 80.5779 253.738 80.7607V97.3838C253.738 97.6032 253.692 97.7495 253.601 97.8227C253.527 97.8958 253.39 97.9324 253.189 97.9324H252.503C252.302 97.9324 252.156 97.8958 252.064 97.8227C251.991 97.7495 251.955 97.6032 251.955 97.3838V80.7607C251.955 80.5779 251.863 80.4864 251.68 80.4864H246.112C245.911 80.4864 245.764 80.4499 245.673 80.3767C245.6 80.3036 245.563 80.1573 245.563 79.9378V79.2795C245.563 79.06 245.6 78.9137 245.673 78.8406C245.764 78.7674 245.911 78.7309 246.112 78.7309H259.58C259.782 78.7309 259.919 78.7674 259.992 78.8406C260.083 78.9137 260.129 79.06 260.129 79.2795V79.9378ZM291.528 89.8129C291.528 91.6416 291.199 93.1869 290.541 94.4487C289.882 95.7105 288.977 96.6523 287.825 97.2741C286.673 97.8958 285.356 98.2067 283.875 98.2067C282.43 98.2067 281.15 97.905 280.035 97.3015C278.938 96.698 278.069 95.7837 277.429 94.5584C276.789 93.3149 276.469 91.7696 276.469 89.9226V79.2795C276.469 79.06 276.505 78.9137 276.578 78.8406C276.67 78.7674 276.816 78.7309 277.017 78.7309H277.703C277.904 78.7309 278.041 78.7674 278.115 78.8406C278.206 78.9137 278.252 79.06 278.252 79.2795V89.8403C278.252 91.2119 278.471 92.3914 278.91 93.3789C279.349 94.3664 279.998 95.1253 280.858 95.6557C281.717 96.186 282.75 96.4512 283.957 96.4512C285.164 96.4512 286.198 96.186 287.057 95.6557C287.935 95.1253 288.602 94.3756 289.059 93.4063C289.517 92.4188 289.745 91.2484 289.745 89.8952V79.2795C289.745 79.06 289.782 78.9137 289.855 78.8406C289.946 78.7674 290.093 78.7309 290.294 78.7309H290.98C291.181 78.7309 291.318 78.7674 291.391 78.8406C291.483 78.9137 291.528 79.06 291.528 79.2795V89.8129ZM308.415 79.9378C308.415 80.1573 308.37 80.3036 308.278 80.3767C308.205 80.4499 308.068 80.4864 307.867 80.4864H302.298C302.116 80.4864 302.024 80.5779 302.024 80.7607V97.3838C302.024 97.6032 301.978 97.7495 301.887 97.8227C301.814 97.8958 301.677 97.9324 301.475 97.9324H300.79C300.589 97.9324 300.442 97.8958 300.351 97.8227C300.278 97.7495 300.241 97.6032 300.241 97.3838V80.7607C300.241 80.5779 300.15 80.4864 299.967 80.4864H294.398C294.197 80.4864 294.051 80.4499 293.959 80.3767C293.886 80.3036 293.85 80.1573 293.85 79.9378V79.2795C293.85 79.06 293.886 78.9137 293.959 78.8406C294.051 78.7674 294.197 78.7309 294.398 78.7309H307.867C308.068 78.7309 308.205 78.7674 308.278 78.8406C308.37 78.9137 308.415 79.06 308.415 79.2795V79.9378ZM309.641 88.4414C309.641 86.5944 310.07 84.9119 310.93 83.3941C311.789 81.858 312.969 80.651 314.468 79.7732C315.968 78.8954 317.623 78.4566 319.433 78.4566C321.244 78.4566 322.88 78.8863 324.343 79.7458C325.825 80.6053 326.986 81.7848 327.827 83.2844C328.687 84.7839 329.116 86.4481 329.116 88.2768C329.116 90.1238 328.687 91.8062 327.827 93.324C326.968 94.8419 325.779 96.0397 324.261 96.9175C322.762 97.777 321.097 98.2067 319.269 98.2067C317.477 98.2067 315.849 97.7861 314.386 96.9449C312.923 96.0854 311.762 94.915 310.902 93.4338C310.061 91.9342 309.641 90.2701 309.641 88.4414ZM311.506 88.3865C311.506 89.9043 311.844 91.2759 312.521 92.5011C313.216 93.7264 314.157 94.6956 315.346 95.4088C316.553 96.1037 317.879 96.4512 319.324 96.4512C320.768 96.4512 322.094 96.0946 323.301 95.3814C324.508 94.6682 325.468 93.6898 326.181 92.4463C326.895 91.2027 327.251 89.8312 327.251 88.3316C327.251 86.7772 326.895 85.3874 326.181 84.1622C325.486 82.9186 324.535 81.9494 323.329 81.2545C322.14 80.5596 320.823 80.2121 319.378 80.2121C317.934 80.2121 316.608 80.5687 315.401 81.2819C314.194 81.9768 313.243 82.9461 312.548 84.1896C311.853 85.4331 311.506 86.8321 311.506 88.3865ZM346.005 97.1369C345.859 97.4661 345.722 97.6855 345.594 97.7953C345.466 97.8867 345.265 97.9324 344.99 97.9324H344.497C344.314 97.9324 344.177 97.905 344.085 97.8501C343.994 97.7953 343.948 97.7038 343.948 97.5758C343.948 97.5027 343.994 97.3564 344.085 97.1369L352.122 79.7458C352.269 79.4166 352.397 79.1423 352.506 78.9229C352.634 78.7034 352.735 78.5663 352.808 78.5114C352.881 78.4383 352.973 78.4017 353.082 78.4017C353.174 78.4017 353.256 78.4383 353.329 78.5114C353.403 78.5663 353.494 78.7034 353.604 78.9229C353.732 79.1423 353.869 79.4166 354.015 79.7458L362.107 97.1369C362.199 97.3564 362.244 97.5027 362.244 97.5758C362.244 97.7038 362.199 97.7953 362.107 97.8501C362.016 97.905 361.879 97.9324 361.696 97.9324H361.12C360.845 97.9324 360.644 97.8867 360.516 97.7953C360.388 97.6855 360.251 97.4661 360.105 97.1369L353.055 81.7208L346.005 97.1369Z" fill="#FAFEFF"/>
<path d="M273.372 98.7246C273.208 98.7246 273.094 98.6493 273.033 98.4987L268.262 90.6139C268.241 90.5575 268.2 90.5292 268.138 90.5292H263.64C263.557 90.5292 263.516 90.5669 263.516 90.6422V98.4987C263.516 98.687 263.413 98.7811 263.207 98.7811H262.143C261.937 98.7811 261.834 98.687 261.834 98.4987V79.6303C261.834 79.442 261.937 79.3479 262.143 79.3479H268.183C269.254 79.3479 269.72 79.555 270.544 80.0067C271.389 80.4584 272.067 81.2865 272.521 82.1147C272.995 82.9428 273.232 83.8933 273.232 84.9661C273.232 86.246 272.892 87.3376 272.212 88.2411C271.532 89.1445 271.203 89.5586 269.882 90.3316C269.8 90.3692 269.779 90.4163 269.821 90.4728L274.746 98.3858L274.777 98.4987C274.777 98.6493 274.684 98.7246 274.499 98.7246H273.372ZM263.64 81.0983C263.557 81.0983 263.516 81.136 263.516 81.2113V88.8071C263.516 88.8824 263.557 88.92 263.64 88.92H267.905C268.976 88.92 269.841 88.1281 270.501 87.4506C271.16 86.773 271.49 85.8884 271.49 84.7967C271.49 83.6863 271.16 82.7923 270.501 82.1147C269.841 81.4371 268.976 81.0983 267.905 81.0983H263.64Z" fill="#FAFEFF"/>
<path d="M342.241 98.7246C342.076 98.7246 341.963 98.6493 341.901 98.4987L337.13 90.6139C337.11 90.5575 337.068 90.5292 337.007 90.5292H332.508C332.426 90.5292 332.384 90.5669 332.384 90.6422V98.4987C332.384 98.687 332.281 98.7811 332.075 98.7811H331.011C330.805 98.7811 330.702 98.687 330.702 98.4987V79.6303C330.702 79.442 330.805 79.3479 331.011 79.3479H337.051C338.122 79.3479 338.589 79.555 339.413 80.0067C340.257 80.4584 340.936 81.2865 341.389 82.1147C341.863 82.9428 342.1 83.8933 342.1 84.9661C342.1 86.246 341.76 87.3376 341.08 88.2411C340.4 89.1445 340.072 89.5586 338.751 90.3316C338.668 90.3692 338.648 90.4163 338.689 90.4728L343.614 98.3858L343.645 98.4987C343.645 98.6493 343.552 98.7246 343.367 98.7246H342.241ZM332.508 81.0983C332.426 81.0983 332.384 81.136 332.384 81.2113V88.8071C332.384 88.8824 332.426 88.92 332.508 88.92H336.773C337.844 88.92 338.71 88.1281 339.369 87.4506C340.028 86.773 340.358 85.8884 340.358 84.7967C340.358 83.6863 340.028 82.7923 339.369 82.1147C338.71 81.4371 337.844 81.0983 336.773 81.0983H332.508Z" fill="#FAFEFF"/>
<path d="M198.259 135.352H198.991V145.019H198.259V135.352ZM210.74 135.352H211.472V145.019H210.823L205.119 136.706V145.019H204.388V135.352H205.023L210.74 143.666V135.352ZM222.806 135.352V136.043H219.768V145.019H219.022V136.043H215.984V135.352H222.806ZM228.058 144.329H232.891V145.019H227.326V135.352H232.822V136.043H228.058V139.799H232.477V140.49H228.058V144.329ZM243.793 145.019L241.473 141.056H238.421V145.019H237.689V135.352H241.501C243.075 135.352 244.359 136.637 244.359 138.211C244.359 139.523 243.462 140.628 242.233 140.959L244.635 145.019H243.793ZM238.421 136.043V140.365H241.501C242.675 140.365 243.627 139.399 243.627 138.211C243.627 137.01 242.675 136.043 241.501 136.043H238.421ZM255.511 135.352H256.243V145.019H255.594L249.891 136.706V145.019H249.159V135.352H249.794L255.511 143.666V135.352ZM268.143 145.019L267.204 142.561H262.357L261.418 145.019H260.645L264.401 135.352H265.174L268.917 145.019H268.143ZM262.634 141.87H266.942L264.788 136.25L262.634 141.87ZM277.448 145.171C274.506 145.171 272.421 142.948 272.421 140.186C272.421 137.424 274.506 135.201 277.448 135.201C279.229 135.201 280.79 136.112 281.591 137.521L280.942 137.893C280.306 136.706 278.967 135.905 277.448 135.905C274.907 135.905 273.153 137.811 273.153 140.186C273.153 142.561 274.907 144.467 277.448 144.467C278.981 144.467 280.334 143.652 280.969 142.437L281.618 142.809C280.831 144.232 279.257 145.171 277.448 145.171ZM286.344 135.352H287.076V145.019H286.344V135.352ZM296.906 145.171C294.116 145.171 291.921 142.948 291.921 140.186C291.921 137.424 294.116 135.201 296.906 135.201C299.695 135.201 301.891 137.424 301.891 140.186C301.891 142.948 299.695 145.171 296.906 145.171ZM296.906 144.467C299.295 144.467 301.159 142.561 301.159 140.186C301.159 137.811 299.295 135.905 296.906 135.905C294.517 135.905 292.653 137.811 292.653 140.186C292.653 142.561 294.517 144.467 296.906 144.467ZM313.1 135.352H313.832V145.019H313.183L307.479 136.706V145.019H306.747V135.352H307.383L313.1 143.666V135.352ZM325.732 145.019L324.793 142.561H319.946L319.007 145.019H318.234L321.99 135.352H322.763L326.506 145.019H325.732ZM320.222 141.87H324.531L322.377 136.25L320.222 141.87ZM331.645 144.329H336.202V145.019H330.913V135.352H331.645V144.329Z" fill="#FAFEFF"/>
<rect x="178.647" y="139.352" width="4.09119" height="4.09119" fill="#FAFEFF"/>
<rect x="351.158" y="139.352" width="4.09119" height="4.09119" fill="#FAFEFF"/>
</svg>
