<svg width="1200" height="479" viewBox="0 0 1200 479" fill="none" xmlns="http://www.w3.org/2000/svg">
<rect x="-9" width="1218" height="479" fill="#0E1E38"/>
<path d="M296.825 261.554L381.327 173.186C381.852 172.636 382.499 172.186 383.249 172.062C386.023 171.603 386.156 173.802 385.763 175.392C385.686 175.702 385.549 175.991 385.389 176.266L343.596 248.244C342.849 249.501 342.494 250.551 342.39 251.42C342.103 253.806 344.481 255.541 346.659 256.554C349.542 257.896 353.693 259.395 355.97 260.154L439.34 287.942C446.346 289.811 445.372 285.607 444.01 283.272L389.865 174.981C389.766 174.784 389.677 174.578 389.62 174.365C389.143 172.61 390 172.142 390.939 172.152C391.685 172.159 392.323 172.628 392.843 173.161L505.31 288.526C508.112 292.263 505.31 293.197 503.558 293.197H306.645C304.816 293.197 302.966 293.105 301.2 292.625C289.501 289.445 288.884 279.128 290.877 271.235C291.821 267.502 294.163 264.338 296.825 261.554Z" fill="white"/>
<path d="M534.789 258.034C534.438 258.773 534.088 259.26 533.738 259.493C533.388 259.727 532.862 259.844 532.162 259.844H526.966C526.109 259.844 525.681 259.571 525.681 259.026C525.681 258.832 525.779 258.501 525.973 258.034L544.13 220.962C544.674 219.795 545.122 219.016 545.472 218.627C545.823 218.238 546.212 218.043 546.64 218.043C547.068 218.043 547.438 218.238 547.749 218.627C548.06 219.016 548.508 219.795 549.092 220.962L567.365 258.034C567.56 258.501 567.657 258.832 567.657 259.026C567.657 259.571 567.229 259.844 566.372 259.844H560.826C560.165 259.844 559.659 259.727 559.308 259.493C558.958 259.26 558.608 258.773 558.258 258.034L546.465 233.164L534.789 258.034ZM578.859 258.443C578.859 258.949 578.743 259.318 578.509 259.552C578.276 259.746 577.906 259.844 577.4 259.844H572.087C571.581 259.844 571.212 259.746 570.978 259.552C570.784 259.318 570.686 258.949 570.686 258.443V220.379C570.686 219.873 570.784 219.522 570.978 219.328C571.212 219.094 571.581 218.977 572.087 218.977H595.731C596.237 218.977 596.607 219.094 596.841 219.328C597.074 219.522 597.191 219.873 597.191 220.379V225.166C597.191 225.672 597.074 226.041 596.841 226.275C596.646 226.47 596.276 226.567 595.731 226.567H579.618C579.346 226.567 579.151 226.625 579.035 226.742C578.918 226.859 578.859 227.053 578.859 227.326V235.908C578.859 236.18 578.918 236.375 579.035 236.492C579.151 236.608 579.346 236.667 579.618 236.667H593.746C594.291 236.667 594.661 236.783 594.856 237.017C595.089 237.212 595.206 237.581 595.206 238.126V242.855C595.206 243.361 595.089 243.731 594.856 243.964C594.622 244.159 594.252 244.256 593.746 244.256H579.618C579.346 244.256 579.151 244.314 579.035 244.431C578.918 244.548 578.859 244.743 578.859 245.015V258.443ZM610.523 258.443C610.523 258.949 610.406 259.318 610.172 259.552C609.939 259.746 609.569 259.844 609.063 259.844H603.751C603.245 259.844 602.875 259.746 602.641 259.552C602.447 259.318 602.349 258.949 602.349 258.443V220.379C602.349 219.873 602.447 219.522 602.641 219.328C602.875 219.094 603.245 218.977 603.751 218.977H627.395C627.901 218.977 628.27 219.094 628.504 219.328C628.737 219.522 628.854 219.873 628.854 220.379V225.166C628.854 225.672 628.737 226.041 628.504 226.275C628.309 226.47 627.939 226.567 627.395 226.567H611.282C611.009 226.567 610.815 226.625 610.698 226.742C610.581 226.859 610.523 227.053 610.523 227.326V235.908C610.523 236.18 610.581 236.375 610.698 236.492C610.815 236.608 611.009 236.667 611.282 236.667H625.41C625.955 236.667 626.324 236.783 626.519 237.017C626.752 237.212 626.869 237.581 626.869 238.126V242.855C626.869 243.361 626.752 243.731 626.519 243.964C626.285 244.159 625.916 244.256 625.41 244.256H611.282C611.009 244.256 610.815 244.314 610.698 244.431C610.581 244.548 610.523 244.743 610.523 245.015V258.443ZM631.677 239.586C631.677 235.538 632.611 231.899 634.48 228.669C636.348 225.399 638.917 222.85 642.186 221.021C645.455 219.191 649.133 218.277 653.22 218.277C657.306 218.277 660.984 219.191 664.254 221.021C667.523 222.811 670.072 225.321 671.901 228.552C673.77 231.743 674.704 235.343 674.704 239.352C674.704 243.4 673.77 247.039 671.901 250.269C670.033 253.5 667.445 256.029 664.137 257.859C660.868 259.649 657.17 260.544 653.045 260.544C648.997 260.544 645.338 259.649 642.069 257.859C638.839 256.068 636.289 253.578 634.421 250.386C632.592 247.195 631.677 243.594 631.677 239.586ZM640.143 239.469C640.143 242.077 640.707 244.412 641.836 246.475C642.964 248.498 644.502 250.094 646.448 251.262C648.433 252.39 650.651 252.955 653.103 252.955C655.516 252.955 657.715 252.39 659.7 251.262C661.724 250.094 663.32 248.479 664.487 246.416C665.655 244.353 666.239 242.038 666.239 239.469C666.239 236.822 665.655 234.468 664.487 232.405C663.358 230.303 661.782 228.688 659.758 227.559C657.773 226.431 655.574 225.866 653.161 225.866C650.709 225.866 648.491 226.45 646.506 227.618C644.56 228.746 643.003 230.342 641.836 232.405C640.707 234.468 640.143 236.822 640.143 239.469ZM706.657 220.379C706.657 219.873 706.755 219.522 706.949 219.328C707.183 219.094 707.553 218.977 708.059 218.977H713.371C713.877 218.977 714.247 219.094 714.48 219.328C714.714 219.522 714.831 219.873 714.831 220.379V258.443C714.831 259.143 714.714 259.669 714.48 260.019C714.286 260.369 713.955 260.544 713.488 260.544C713.138 260.544 712.768 260.408 712.379 260.136C711.99 259.863 711.445 259.377 710.744 258.676L688.501 235.149V258.443C688.501 258.949 688.384 259.318 688.151 259.552C687.917 259.746 687.548 259.844 687.042 259.844H681.729C681.223 259.844 680.853 259.746 680.62 259.552C680.425 259.318 680.328 258.949 680.328 258.443V220.379C680.328 218.977 680.756 218.277 681.612 218.277C681.963 218.277 682.332 218.413 682.721 218.685C683.15 218.958 683.714 219.444 684.414 220.145L706.657 243.672V220.379ZM721.949 249.452C722.105 249.218 722.26 249.043 722.416 248.927C722.611 248.771 722.786 248.693 722.941 248.693C723.253 248.693 723.603 248.868 723.992 249.218C725.471 250.386 727.086 251.32 728.838 252.021C730.628 252.682 732.438 253.013 734.267 253.013C736.564 253.013 738.334 252.605 739.58 251.787C740.825 250.931 741.448 249.783 741.448 248.343C741.448 247.409 741.195 246.65 740.689 246.066C740.183 245.482 739.346 244.957 738.179 244.49C737.05 244.023 735.415 243.517 733.275 242.972C730.434 242.271 728.079 241.434 726.211 240.461C724.382 239.488 722.961 238.223 721.949 236.667C720.976 235.11 720.489 233.164 720.489 230.829C720.489 228.221 721.112 225.983 722.358 224.115C723.642 222.208 725.393 220.768 727.612 219.795C729.869 218.783 732.419 218.277 735.26 218.277C740.436 218.277 745.048 219.892 749.096 223.122C749.524 223.434 749.738 223.784 749.738 224.173C749.738 224.485 749.602 224.835 749.329 225.224L746.877 229.077C746.566 229.583 746.235 229.836 745.885 229.836C745.613 229.836 745.262 229.68 744.834 229.369C743.238 228.24 741.662 227.365 740.105 226.742C738.548 226.119 736.914 225.808 735.201 225.808C733.294 225.808 731.776 226.217 730.648 227.034C729.558 227.851 729.013 228.941 729.013 230.303C729.013 231.276 729.285 232.074 729.83 232.697C730.375 233.32 731.173 233.845 732.224 234.273C733.314 234.701 734.851 235.168 736.836 235.674C739.833 236.414 742.285 237.309 744.192 238.36C746.099 239.372 747.52 240.656 748.454 242.213C749.427 243.731 749.913 245.599 749.913 247.817C749.913 250.425 749.252 252.682 747.928 254.589C746.605 256.497 744.756 257.976 742.382 259.026C740.008 260.038 737.284 260.544 734.209 260.544C731.407 260.544 728.78 260.097 726.328 259.201C723.876 258.306 721.715 257.08 719.847 255.524C719.302 255.095 719.03 254.706 719.03 254.356C719.03 254.122 719.186 253.753 719.497 253.247L721.949 249.452ZM780.326 252.254C780.832 252.254 781.201 252.371 781.435 252.605C781.669 252.799 781.785 253.149 781.785 253.655V258.443C781.785 258.949 781.669 259.318 781.435 259.552C781.201 259.746 780.832 259.844 780.326 259.844H756.857C756.351 259.844 755.981 259.746 755.748 259.552C755.553 259.318 755.456 258.949 755.456 258.443V220.379C755.456 219.873 755.553 219.522 755.748 219.328C755.981 219.094 756.351 218.977 756.857 218.977H780.267C780.773 218.977 781.143 219.094 781.377 219.328C781.61 219.522 781.727 219.873 781.727 220.379V225.166C781.727 225.672 781.61 226.041 781.377 226.275C781.143 226.47 780.773 226.567 780.267 226.567H764.388C764.115 226.567 763.921 226.625 763.804 226.742C763.687 226.859 763.629 227.053 763.629 227.326V234.74C763.629 235.013 763.687 235.207 763.804 235.324C763.921 235.441 764.115 235.499 764.388 235.499H778.282C778.788 235.499 779.158 235.616 779.392 235.849C779.625 236.083 779.742 236.453 779.742 236.959V241.687C779.742 242.193 779.625 242.563 779.392 242.797C779.158 242.991 778.788 243.088 778.282 243.088H764.388C764.115 243.088 763.921 243.147 763.804 243.264C763.687 243.341 763.629 243.536 763.629 243.847V251.495C763.629 251.768 763.687 251.962 763.804 252.079C763.921 252.196 764.115 252.254 764.388 252.254H780.326ZM807.126 252.955C811.134 252.955 814.715 251.69 817.868 249.16C818.296 248.81 818.665 248.635 818.977 248.635C819.288 248.635 819.6 248.849 819.911 249.277L822.48 252.955C822.713 253.305 822.83 253.597 822.83 253.83C822.83 254.025 822.772 254.22 822.655 254.414C822.538 254.609 822.343 254.823 822.071 255.056C819.969 256.808 817.615 258.17 815.007 259.143C812.399 260.077 809.675 260.544 806.834 260.544C802.864 260.544 799.244 259.649 795.975 257.859C792.745 256.029 790.195 253.519 788.327 250.328C786.459 247.136 785.525 243.556 785.525 239.586C785.525 235.538 786.459 231.899 788.327 228.669C790.234 225.438 792.822 222.908 796.092 221.079C799.4 219.211 803.117 218.277 807.242 218.277C810.084 218.277 812.769 218.763 815.299 219.736C817.829 220.709 820.125 222.033 822.188 223.706C822.382 223.901 822.538 224.095 822.655 224.29C822.772 224.446 822.83 224.601 822.83 224.757C822.83 225.029 822.694 225.36 822.421 225.75L819.853 229.369C819.502 229.836 819.152 230.07 818.802 230.07C818.529 230.07 818.179 229.914 817.751 229.603C816.194 228.435 814.52 227.52 812.73 226.859C810.94 226.197 809.072 225.866 807.126 225.866C804.674 225.866 802.436 226.45 800.412 227.618C798.427 228.746 796.851 230.342 795.683 232.405C794.554 234.468 793.99 236.822 793.99 239.469C793.99 242.038 794.554 244.353 795.683 246.416C796.851 248.44 798.427 250.036 800.412 251.203C802.397 252.371 804.635 252.955 807.126 252.955ZM832.906 258.034C832.555 258.773 832.205 259.26 831.855 259.493C831.504 259.727 830.979 259.844 830.278 259.844H825.083C824.226 259.844 823.798 259.571 823.798 259.026C823.798 258.832 823.896 258.501 824.09 258.034L842.246 220.962C842.791 219.795 843.239 219.016 843.589 218.627C843.939 218.238 844.329 218.043 844.757 218.043C845.185 218.043 845.555 218.238 845.866 218.627C846.177 219.016 846.625 219.795 847.209 220.962L865.482 258.034C865.676 258.501 865.774 258.832 865.774 259.026C865.774 259.571 865.346 259.844 864.489 259.844H858.943C858.282 259.844 857.776 259.727 857.425 259.493C857.075 259.26 856.725 258.773 856.374 258.034L844.582 233.164L832.906 258.034Z" fill="#FAFEFF"/>
<path d="M549.363 207.966C551.335 207.966 553.167 207.653 554.858 207.027C556.581 206.369 558.146 205.446 559.555 204.256C559.869 204.005 560.119 203.88 560.307 203.88C560.526 203.88 560.73 204.021 560.918 204.303L561.622 205.242C561.779 205.492 561.857 205.68 561.857 205.806C561.857 206.025 561.7 206.275 561.387 206.557C559.728 207.966 557.849 209.062 555.751 209.845C553.684 210.597 551.508 210.973 549.222 210.973C546.278 210.973 543.554 210.252 541.049 208.812C538.543 207.371 536.555 205.367 535.083 202.799C533.611 200.232 532.875 197.351 532.875 194.157C532.875 190.963 533.611 188.082 535.083 185.514C536.555 182.915 538.559 180.879 541.096 179.407C543.632 177.904 546.435 177.153 549.503 177.153C551.727 177.153 553.856 177.544 555.892 178.327C557.927 179.11 559.743 180.159 561.34 181.474C561.622 181.693 561.763 181.913 561.763 182.132C561.763 182.288 561.669 182.508 561.481 182.789L560.777 183.682C560.526 183.995 560.307 184.152 560.119 184.152C560.025 184.152 559.916 184.12 559.79 184.058C559.665 183.964 559.524 183.87 559.368 183.776C557.958 182.649 556.393 181.772 554.67 181.145C552.979 180.488 551.21 180.159 549.363 180.159C546.92 180.159 544.681 180.754 542.646 181.944C540.641 183.134 539.044 184.794 537.854 186.923C536.665 189.021 536.07 191.417 536.07 194.11C536.07 196.677 536.649 199.026 537.807 201.155C538.997 203.253 540.61 204.913 542.646 206.134C544.681 207.356 546.92 207.966 549.363 207.966ZM563.959 194.251C563.959 191.088 564.695 188.207 566.167 185.608C567.639 182.977 569.659 180.911 572.226 179.407C574.794 177.904 577.628 177.153 580.728 177.153C583.828 177.153 586.631 177.889 589.136 179.36C591.673 180.832 593.661 182.852 595.102 185.42C596.573 187.988 597.309 190.837 597.309 193.969C597.309 197.131 596.573 200.012 595.102 202.612C593.63 205.211 591.594 207.262 588.995 208.765C586.427 210.237 583.578 210.973 580.446 210.973C577.378 210.973 574.591 210.252 572.085 208.812C569.58 207.34 567.592 205.336 566.12 202.799C564.679 200.232 563.959 197.382 563.959 194.251ZM567.153 194.157C567.153 196.756 567.733 199.104 568.891 201.202C570.081 203.3 571.694 204.96 573.729 206.181C575.796 207.371 578.066 207.966 580.54 207.966C583.014 207.966 585.284 207.356 587.351 206.134C589.418 204.913 591.062 203.238 592.283 201.108C593.505 198.979 594.115 196.63 594.115 194.063C594.115 191.401 593.505 189.021 592.283 186.923C591.093 184.794 589.465 183.134 587.398 181.944C585.363 180.754 583.108 180.159 580.634 180.159C578.16 180.159 575.89 180.77 573.823 181.991C571.757 183.181 570.128 184.841 568.938 186.97C567.748 189.099 567.153 191.495 567.153 194.157ZM625.853 178.562C625.853 178.186 625.916 177.936 626.041 177.81C626.198 177.685 626.448 177.623 626.793 177.623H627.967C628.311 177.623 628.546 177.685 628.672 177.81C628.828 177.936 628.906 178.186 628.906 178.562V209.563C628.906 210.064 628.828 210.425 628.672 210.644C628.515 210.863 628.296 210.973 628.014 210.973C627.763 210.973 627.513 210.879 627.262 210.691C627.043 210.503 626.714 210.127 626.276 209.563L606.172 183.964V209.563C606.172 209.939 606.094 210.19 605.937 210.315C605.812 210.44 605.577 210.503 605.233 210.503H604.058C603.714 210.503 603.463 210.44 603.307 210.315C603.182 210.19 603.119 209.939 603.119 209.563V178.562C603.119 178.061 603.197 177.701 603.354 177.482C603.51 177.262 603.73 177.153 604.011 177.153C604.262 177.153 604.497 177.247 604.716 177.435C604.966 177.623 605.311 177.998 605.749 178.562L625.853 204.162V178.562ZM645.131 177.153C648.889 177.153 652.318 178.343 655.418 180.723C655.731 180.942 655.888 181.161 655.888 181.38C655.888 181.537 655.778 181.74 655.559 181.991L654.714 183.024C654.494 183.337 654.291 183.494 654.103 183.494C653.884 183.494 653.649 183.384 653.398 183.165C652.083 182.226 650.737 181.49 649.359 180.958C648.012 180.425 646.572 180.159 645.037 180.159C643.66 180.159 642.438 180.394 641.374 180.864C640.309 181.333 639.479 182.022 638.884 182.93C638.289 183.807 637.992 184.856 637.992 186.077C637.992 187.299 638.274 188.301 638.837 189.084C639.432 189.867 640.293 190.508 641.421 191.01C642.548 191.511 644.082 192.012 646.024 192.513C648.435 193.139 650.361 193.843 651.801 194.626C653.242 195.378 654.322 196.317 655.042 197.445C655.763 198.572 656.123 199.965 656.123 201.625C656.123 203.473 655.622 205.101 654.62 206.51C653.618 207.919 652.24 209.015 650.486 209.798C648.733 210.581 646.744 210.973 644.521 210.973C642.485 210.973 640.559 210.612 638.743 209.892C636.958 209.141 635.314 208.139 633.811 206.886C633.498 206.667 633.341 206.448 633.341 206.228C633.341 206.04 633.451 205.821 633.67 205.571L634.563 204.49C634.782 204.209 634.985 204.068 635.173 204.068C635.299 204.068 635.502 204.177 635.784 204.396C638.728 206.776 641.687 207.966 644.662 207.966C646.321 207.966 647.762 207.716 648.983 207.215C650.236 206.714 651.191 206.009 651.848 205.101C652.537 204.162 652.882 203.066 652.882 201.813C652.882 200.654 652.616 199.715 652.083 198.995C651.582 198.243 650.752 197.601 649.594 197.069C648.466 196.505 646.869 195.957 644.803 195.425C642.517 194.83 640.653 194.188 639.213 193.499C637.804 192.81 636.708 191.886 635.925 190.728C635.142 189.569 634.751 188.082 634.751 186.265C634.751 184.418 635.205 182.805 636.113 181.427C637.052 180.049 638.305 179 639.871 178.28C641.436 177.529 643.19 177.153 645.131 177.153ZM683.857 179.689C683.857 180.065 683.779 180.316 683.622 180.441C683.497 180.566 683.262 180.629 682.918 180.629H673.383C673.069 180.629 672.913 180.785 672.913 181.098V209.563C672.913 209.939 672.835 210.19 672.678 210.315C672.553 210.44 672.318 210.503 671.973 210.503H670.799C670.455 210.503 670.204 210.44 670.048 210.315C669.922 210.19 669.86 209.939 669.86 209.563V181.098C669.86 180.785 669.703 180.629 669.39 180.629H659.855C659.51 180.629 659.26 180.566 659.103 180.441C658.978 180.316 658.915 180.065 658.915 179.689V178.562C658.915 178.186 658.978 177.936 659.103 177.81C659.26 177.685 659.51 177.623 659.855 177.623H682.918C683.262 177.623 683.497 177.685 683.622 177.81C683.779 177.936 683.857 178.186 683.857 178.562V179.689ZM737.625 196.599C737.625 199.731 737.061 202.377 735.934 204.537C734.806 206.698 733.256 208.311 731.283 209.375C729.311 210.44 727.056 210.973 724.519 210.973C722.046 210.973 719.854 210.456 717.943 209.422C716.064 208.389 714.577 206.823 713.481 204.725C712.385 202.596 711.837 199.95 711.837 196.787V178.562C711.837 178.186 711.9 177.936 712.025 177.81C712.181 177.685 712.432 177.623 712.776 177.623H713.951C714.295 177.623 714.53 177.685 714.655 177.81C714.812 177.936 714.89 178.186 714.89 178.562V196.646C714.89 198.995 715.266 201.015 716.017 202.705C716.769 204.396 717.881 205.696 719.352 206.604C720.824 207.512 722.594 207.966 724.66 207.966C726.727 207.966 728.496 207.512 729.968 206.604C731.471 205.696 732.614 204.412 733.397 202.752C734.18 201.061 734.571 199.057 734.571 196.74V178.562C734.571 178.186 734.634 177.936 734.759 177.81C734.916 177.685 735.166 177.623 735.511 177.623H736.685C737.03 177.623 737.264 177.685 737.39 177.81C737.546 177.936 737.625 178.186 737.625 178.562V196.599ZM766.542 179.689C766.542 180.065 766.463 180.316 766.307 180.441C766.182 180.566 765.947 180.629 765.602 180.629H756.067C755.754 180.629 755.597 180.785 755.597 181.098V209.563C755.597 209.939 755.519 210.19 755.362 210.315C755.237 210.44 755.002 210.503 754.658 210.503H753.484C753.139 210.503 752.889 210.44 752.732 210.315C752.607 210.19 752.544 209.939 752.544 209.563V181.098C752.544 180.785 752.388 180.629 752.074 180.629H742.539C742.195 180.629 741.944 180.566 741.788 180.441C741.662 180.316 741.6 180.065 741.6 179.689V178.562C741.6 178.186 741.662 177.936 741.788 177.81C741.944 177.685 742.195 177.623 742.539 177.623H765.602C765.947 177.623 766.182 177.685 766.307 177.81C766.463 177.936 766.542 178.186 766.542 178.562V179.689ZM768.64 194.251C768.64 191.088 769.375 188.207 770.847 185.608C772.319 182.977 774.339 180.911 776.907 179.407C779.474 177.904 782.308 177.153 785.408 177.153C788.509 177.153 791.311 177.889 793.816 179.36C796.353 180.832 798.341 182.852 799.782 185.42C801.254 187.988 801.99 190.837 801.99 193.969C801.99 197.131 801.254 200.012 799.782 202.612C798.31 205.211 796.275 207.262 793.676 208.765C791.108 210.237 788.258 210.973 785.127 210.973C782.058 210.973 779.271 210.252 776.766 208.812C774.261 207.34 772.272 205.336 770.8 202.799C769.36 200.232 768.64 197.382 768.64 194.251ZM771.834 194.157C771.834 196.756 772.413 199.104 773.572 201.202C774.762 203.3 776.374 204.96 778.41 206.181C780.476 207.371 782.747 207.966 785.221 207.966C787.694 207.966 789.965 207.356 792.032 206.134C794.098 204.913 795.742 203.238 796.964 201.108C798.185 198.979 798.795 196.63 798.795 194.063C798.795 191.401 798.185 189.021 796.964 186.923C795.774 184.794 794.145 183.134 792.078 181.944C790.043 180.754 787.788 180.159 785.315 180.159C782.841 180.159 780.57 180.77 778.504 181.991C776.437 183.181 774.809 184.841 773.619 186.97C772.429 189.099 771.834 191.495 771.834 194.157ZM830.91 209.141C830.659 209.704 830.424 210.08 830.205 210.268C829.986 210.425 829.642 210.503 829.172 210.503H828.326C828.013 210.503 827.778 210.456 827.622 210.362C827.465 210.268 827.387 210.111 827.387 209.892C827.387 209.767 827.465 209.516 827.622 209.141L841.384 179.36C841.635 178.797 841.854 178.327 842.042 177.951C842.261 177.576 842.434 177.341 842.559 177.247C842.684 177.122 842.841 177.059 843.028 177.059C843.185 177.059 843.326 177.122 843.451 177.247C843.576 177.341 843.733 177.576 843.921 177.951C844.14 178.327 844.375 178.797 844.626 179.36L858.482 209.141C858.639 209.516 858.717 209.767 858.717 209.892C858.717 210.111 858.639 210.268 858.482 210.362C858.326 210.456 858.091 210.503 857.778 210.503H856.791C856.322 210.503 855.977 210.425 855.758 210.268C855.539 210.08 855.304 209.704 855.053 209.141L842.982 182.742L830.91 209.141Z" fill="#FAFEFF"/>
<path d="M706.745 211.018C706.463 211.018 706.269 210.889 706.163 210.631L697.994 197.13C697.959 197.033 697.888 196.985 697.782 196.985H690.079C689.938 196.985 689.868 197.049 689.868 197.178V210.631C689.868 210.954 689.691 211.115 689.339 211.115H687.516C687.163 211.115 686.987 210.954 686.987 210.631V178.321C686.987 177.999 687.163 177.838 687.516 177.838H697.859C699.693 177.838 700.492 178.193 701.903 178.966C703.349 179.74 704.511 181.158 705.287 182.576C706.098 183.994 706.504 185.621 706.504 187.458C706.504 189.65 705.922 191.519 704.758 193.066C703.594 194.613 703.031 195.322 700.769 196.646C700.628 196.711 700.593 196.791 700.663 196.888L709.097 210.438L709.15 210.631C709.15 210.889 708.991 211.018 708.674 211.018H706.745ZM690.079 180.835C689.938 180.835 689.868 180.9 689.868 181.029V194.036C689.868 194.165 689.938 194.229 690.079 194.229H697.382C699.217 194.229 700.699 192.873 701.828 191.713C702.957 190.553 703.521 189.038 703.521 187.168C703.521 185.267 702.957 183.736 701.828 182.576C700.699 181.415 699.217 180.835 697.382 180.835H690.079Z" fill="#FAFEFF"/>
<path d="M824.673 211.018C824.391 211.018 824.197 210.889 824.091 210.631L815.922 197.13C815.887 197.033 815.816 196.985 815.71 196.985H808.007C807.866 196.985 807.796 197.049 807.796 197.178V210.631C807.796 210.954 807.619 211.115 807.266 211.115H805.444C805.091 211.115 804.915 210.954 804.915 210.631V178.321C804.915 177.999 805.091 177.838 805.444 177.838H815.786C817.621 177.838 818.419 178.193 819.831 178.966C821.277 179.74 822.439 181.158 823.215 182.576C824.026 183.994 824.432 185.621 824.432 187.458C824.432 189.65 823.85 191.519 822.685 193.066C821.521 194.613 820.959 195.322 818.697 196.646C818.556 196.711 818.521 196.791 818.591 196.888L827.025 210.438L827.078 210.631C827.078 210.889 826.919 211.018 826.602 211.018H824.673ZM808.007 180.835C807.866 180.835 807.796 180.9 807.796 181.029V194.036C807.796 194.165 807.866 194.229 808.007 194.229H815.31C817.145 194.229 818.626 192.873 819.755 191.713C820.884 190.553 821.449 189.038 821.449 187.168C821.449 185.267 820.884 183.736 819.755 182.576C818.626 181.415 817.145 180.835 815.31 180.835H808.007Z" fill="#FAFEFF"/>
<path d="M578.121 274.916H579.375V291.469H578.121V274.916ZM599.494 274.916H600.747V291.469H599.636L589.869 277.234V291.469H588.616V274.916H589.704L599.494 289.152V274.916ZM620.156 274.916V276.099H614.954V291.469H613.677V276.099H608.474V274.916H620.156ZM629.149 290.287H637.425V291.469H627.895V274.916H637.307V276.099H629.149V282.531H636.716V283.713H629.149V290.287ZM656.093 291.469L652.121 284.682H646.895V291.469H645.641V274.916H652.168C654.864 274.916 657.063 277.116 657.063 279.811C657.063 282.058 655.526 283.949 653.421 284.517L657.536 291.469H656.093ZM646.895 276.099V283.5H652.168C654.178 283.5 655.81 281.845 655.81 279.811C655.81 277.754 654.178 276.099 652.168 276.099H646.895ZM676.159 274.916H677.412V291.469H676.3L666.534 277.234V291.469H665.281V274.916H666.369L676.159 289.152V274.916ZM697.79 291.469L696.182 287.26H687.882L686.274 291.469H684.95L691.382 274.916H692.706L699.114 291.469H697.79ZM688.355 286.078H695.733L692.044 276.453L688.355 286.078ZM713.723 291.729C708.686 291.729 705.115 287.922 705.115 283.193C705.115 278.463 708.686 274.656 713.723 274.656C716.773 274.656 719.445 276.217 720.817 278.629L719.705 279.267C718.618 277.234 716.324 275.862 713.723 275.862C709.372 275.862 706.369 279.125 706.369 283.193C706.369 287.26 709.372 290.523 713.723 290.523C716.348 290.523 718.665 289.128 719.753 287.047L720.864 287.686C719.516 290.121 716.82 291.729 713.723 291.729ZM728.957 274.916H730.21V291.469H728.957V274.916ZM747.042 291.729C742.266 291.729 738.506 287.922 738.506 283.193C738.506 278.463 742.266 274.656 747.042 274.656C751.819 274.656 755.579 278.463 755.579 283.193C755.579 287.922 751.819 291.729 747.042 291.729ZM747.042 290.523C751.133 290.523 754.326 287.26 754.326 283.193C754.326 279.125 751.133 275.862 747.042 275.862C742.952 275.862 739.759 279.125 739.759 283.193C739.759 287.26 742.952 290.523 747.042 290.523ZM774.772 274.916H776.025V291.469H774.914L765.148 277.234V291.469H763.895V274.916H764.982L774.772 289.152V274.916ZM796.404 291.469L794.796 287.26H786.496L784.888 291.469H783.564L789.996 274.916H791.32L797.728 291.469H796.404ZM786.969 286.078H794.347L790.658 276.453L786.969 286.078ZM806.529 290.287H814.332V291.469H805.275V274.916H806.529V290.287Z" fill="#FAFEFF"/>
<rect x="544.539" y="280.588" width="7.00565" height="7.00565" fill="#FAFEFF"/>
<rect x="839.943" y="280.588" width="7.00565" height="7.00565" fill="#FAFEFF"/>
</svg>
