<svg width="76" height="43" viewBox="0 0 76 43" fill="none" xmlns="http://www.w3.org/2000/svg">
<path d="M6.54672 27.0361L31.2351 1.27555C31.961 0.518156 33.4559 -0.501615 33.6542 0.528529C33.6648 0.583338 33.6708 0.640273 33.673 0.698233C33.6898 1.13834 33.4584 1.54104 33.2369 1.9217L18.8144 26.7052C17.9772 28.1109 19.4711 29.4799 20.991 30.0855C21.7873 30.4028 22.6212 30.6985 23.1582 30.8771L52.4245 40.6101C54.8838 41.2644 54.5422 39.7922 54.064 38.9742L35.1693 1.26891C35.0597 1.05007 34.8941 0.659617 34.9297 0.417448C35.0496 -0.39702 36.1246 0.429524 36.6999 1.01837L75.5827 40.8146C76.5664 42.1233 75.5827 42.4505 74.9678 42.4505H8.66557C6.14469 42.4505 3.29231 42.6781 1.4691 40.9372C1.32312 40.7978 1.18984 40.6518 1.06847 40.5C-2.25564 36.3431 2.8639 30.8788 6.54672 27.0361Z" fill="url(#paint0_linear_148_70)"/>
<defs>
<linearGradient id="paint0_linear_148_70" x1="43.9152" y1="8.32155" x2="15.2947" y2="51.5036" gradientUnits="userSpaceOnUse">
<stop stop-color="#5876BA"/>
<stop offset="0.302083" stop-color="#314774"/>
<stop offset="0.987609" stop-color="#12223E"/>
</linearGradient>
</defs>
</svg>
