<svg width="111" height="63" viewBox="0 0 111 63" fill="none" xmlns="http://www.w3.org/2000/svg">
<path d="M9.56165 39.4869L45.6197 1.86297C46.6798 0.756781 48.8632 -0.732622 49.1529 0.77193C49.1683 0.85198 49.1771 0.935136 49.1803 1.01979C49.2048 1.66258 48.8669 2.25072 48.5434 2.80669L27.4789 39.0036C26.2561 41.0566 28.438 43.0561 30.6579 43.9407C31.821 44.4041 33.0388 44.8359 33.8231 45.0968L76.5674 59.3121C80.1592 60.2678 79.6603 58.1175 78.9619 56.9229L51.3657 1.85327C51.2056 1.53365 50.9637 0.963387 51.0158 0.609694C51.1909 -0.579857 52.7609 0.627328 53.6012 1.48735L110.39 59.6108C111.827 61.5222 110.39 62 109.493 62H12.6563C8.97448 62 4.80851 62.3325 2.14566 59.7899C1.93246 59.5863 1.73779 59.373 1.56052 59.1513C-3.29441 53.08 4.18279 45.0993 9.56165 39.4869Z" fill="url(#paint0_linear_55_41)"/>
<defs>
<linearGradient id="paint0_linear_55_41" x1="64.1393" y1="12.1538" x2="22.3383" y2="75.2224" gradientUnits="userSpaceOnUse">
<stop stop-color="#5876BA"/>
<stop offset="0.302083" stop-color="#314774"/>
<stop offset="0.987609" stop-color="#12223E"/>
</linearGradient>
</defs>
</svg>
