<svg width="1344" height="834" viewBox="0 0 1344 834" fill="none" xmlns="http://www.w3.org/2000/svg">
<path d="M24.7605 636.665L570.326 4.24321C571.367 3.03598 572.695 2.09334 574.215 1.61068C597.388 -5.74999 597.197 13.8365 593.909 25.6467C593.749 26.2233 593.52 26.7739 593.242 27.3041L332.718 524.662C322.395 543.917 324.143 556.107 328.209 563.267C330.569 567.423 334.041 570.974 337.929 573.755C352.515 584.185 391.011 599.78 409.534 606.624L927.086 797.844C970.576 810.699 964.536 781.774 956.08 765.705L619.029 18.4722C613.799 1.0773 623.903 -0.190374 631.253 1.69409C632.768 2.08251 634.067 3.01761 635.1 4.19197L1336.62 801.861C1354.02 827.572 1336.62 834 1325.75 834H92.4078C88.3247 834 84.1673 833.673 80.1768 832.809C-16.8935 811.784 -6.86689 712.328 13.3605 655.667C15.8663 648.648 19.8922 642.308 24.7605 636.665Z" fill="#5577BB" fill-opacity="0.05"/>
</svg>
